<mxfile host="Electron" agent="Mozilla/5.0 (Windows NT 10.0; Win64; x64) AppleWebKit/537.36 (KHTML, like Gecko) draw.io/24.7.8 Chrome/128.0.6613.36 Electron/32.0.1 Safari/537.36" version="24.7.8">
  <diagram name="Page-1" id="r7DDbBD56znKV8agQ9Tl">
    <mxGraphModel dx="1727" dy="1010" grid="1" gridSize="10" guides="1" tooltips="1" connect="1" arrows="1" fold="1" page="1" pageScale="1" pageWidth="850" pageHeight="1100" math="0" shadow="0">
      <root>
        <mxCell id="0" />
        <mxCell id="1" parent="0" />
        <mxCell id="TaJbaXzCYBkzO7Uhbq2M-25" value="" style="endArrow=none;html=1;rounded=0;entryX=0.5;entryY=0.5;entryDx=0;entryDy=0;entryPerimeter=0;exitX=0;exitY=0.5;exitDx=0;exitDy=0;" parent="1" source="TaJbaXzCYBkzO7Uhbq2M-12" target="bIR2pzUK-BUm1ZlaJqXN-8" edge="1">
          <mxGeometry width="50" height="50" relative="1" as="geometry">
            <mxPoint x="200" y="760" as="sourcePoint" />
            <mxPoint x="105" y="625" as="targetPoint" />
          </mxGeometry>
        </mxCell>
        <mxCell id="bIR2pzUK-BUm1ZlaJqXN-7" value="User" style="shape=umlActor;verticalLabelPosition=bottom;verticalAlign=top;html=1;outlineConnect=0;" parent="1" vertex="1">
          <mxGeometry x="20" y="250" width="30" height="60" as="geometry" />
        </mxCell>
        <mxCell id="bIR2pzUK-BUm1ZlaJqXN-46" value="" style="edgeStyle=orthogonalEdgeStyle;rounded=0;orthogonalLoop=1;jettySize=auto;html=1;endArrow=block;endFill=0;endSize=21;" parent="1" source="bIR2pzUK-BUm1ZlaJqXN-8" edge="1">
          <mxGeometry relative="1" as="geometry">
            <mxPoint x="35" y="335" as="targetPoint" />
          </mxGeometry>
        </mxCell>
        <mxCell id="bIR2pzUK-BUm1ZlaJqXN-10" value="Search for Movie" style="ellipse;whiteSpace=wrap;" parent="1" vertex="1">
          <mxGeometry x="170" y="70" width="120" height="50" as="geometry" />
        </mxCell>
        <mxCell id="bIR2pzUK-BUm1ZlaJqXN-11" value="Select Theater" style="ellipse;whiteSpace=wrap;html=1;" parent="1" vertex="1">
          <mxGeometry x="170" width="120" height="50" as="geometry" />
        </mxCell>
        <mxCell id="bIR2pzUK-BUm1ZlaJqXN-13" value="View Available Seats" style="ellipse;whiteSpace=wrap;" parent="1" vertex="1">
          <mxGeometry x="480" y="140" width="120" height="50" as="geometry" />
        </mxCell>
        <mxCell id="bIR2pzUK-BUm1ZlaJqXN-22" value="Register Profile Information" style="ellipse;whiteSpace=wrap;html=1;" parent="1" vertex="1">
          <mxGeometry x="170" y="680" width="120" height="50" as="geometry" />
        </mxCell>
        <mxCell id="bIR2pzUK-BUm1ZlaJqXN-24" value="Pay Annual&amp;nbsp;&lt;div&gt;Account Fee&lt;/div&gt;" style="ellipse;whiteSpace=wrap;html=1;" parent="1" vertex="1">
          <mxGeometry x="480" y="600" width="120" height="50" as="geometry" />
        </mxCell>
        <mxCell id="bIR2pzUK-BUm1ZlaJqXN-50" value="Cancel Subscription" style="ellipse;whiteSpace=wrap;html=1;" parent="1" vertex="1">
          <mxGeometry x="480" y="650" width="120" height="50" as="geometry" />
        </mxCell>
        <mxCell id="bIR2pzUK-BUm1ZlaJqXN-54" value="Purchase Tickets" style="ellipse;whiteSpace=wrap;html=1;" parent="1" vertex="1">
          <mxGeometry x="170" y="210" width="120" height="50" as="geometry" />
        </mxCell>
        <mxCell id="bIR2pzUK-BUm1ZlaJqXN-82" value="Manage&amp;nbsp;&lt;div&gt;Account&lt;/div&gt;" style="ellipse;whiteSpace=wrap;html=1;" parent="1" vertex="1">
          <mxGeometry x="170" y="600" width="120" height="50" as="geometry" />
        </mxCell>
        <mxCell id="bIR2pzUK-BUm1ZlaJqXN-84" value="Pay with Credit Card" style="ellipse;whiteSpace=wrap;html=1;" parent="1" vertex="1">
          <mxGeometry x="480" y="510" width="120" height="50" as="geometry" />
        </mxCell>
        <mxCell id="TaJbaXzCYBkzO7Uhbq2M-3" value="Apply Credits" style="ellipse;whiteSpace=wrap;html=1;" parent="1" vertex="1">
          <mxGeometry x="480" y="460" width="120" height="50" as="geometry" />
        </mxCell>
        <mxCell id="TaJbaXzCYBkzO7Uhbq2M-8" value="Select Desired Seats" style="ellipse;whiteSpace=wrap;" parent="1" vertex="1">
          <mxGeometry x="480" y="210" width="120" height="50" as="geometry" />
        </mxCell>
        <mxCell id="TaJbaXzCYBkzO7Uhbq2M-11" value="Cancel Tickets" style="ellipse;whiteSpace=wrap;html=1;" parent="1" vertex="1">
          <mxGeometry x="170" y="330" width="120" height="50" as="geometry" />
        </mxCell>
        <mxCell id="TaJbaXzCYBkzO7Uhbq2M-12" value="Receive New Movie Notifications" style="ellipse;whiteSpace=wrap;html=1;" parent="1" vertex="1">
          <mxGeometry x="170" y="820" width="120" height="50" as="geometry" />
        </mxCell>
        <mxCell id="TaJbaXzCYBkzO7Uhbq2M-13" value="Refund 85% of&amp;nbsp;&lt;div&gt;Ticket Price&lt;/div&gt;" style="ellipse;whiteSpace=wrap;html=1;" parent="1" vertex="1">
          <mxGeometry x="480" y="380" width="120" height="50" as="geometry" />
        </mxCell>
        <mxCell id="TaJbaXzCYBkzO7Uhbq2M-14" value="Receive 15% Administration Fee Credit" style="ellipse;whiteSpace=wrap;html=1;" parent="1" vertex="1">
          <mxGeometry x="480" y="330" width="120" height="50" as="geometry" />
        </mxCell>
        <mxCell id="TaJbaXzCYBkzO7Uhbq2M-15" value="Cancel Tickets" style="ellipse;whiteSpace=wrap;html=1;" parent="1" vertex="1">
          <mxGeometry x="170" y="750" width="120" height="50" as="geometry" />
        </mxCell>
        <mxCell id="TaJbaXzCYBkzO7Uhbq2M-16" value="Receive 100% Refund" style="ellipse;whiteSpace=wrap;html=1;" parent="1" vertex="1">
          <mxGeometry x="480" y="750" width="120" height="50" as="geometry" />
        </mxCell>
        <mxCell id="TaJbaXzCYBkzO7Uhbq2M-17" value="&lt;font style=&quot;font-size: 10px;&quot;&gt;Early Access to New Movie Ticket Purchases&lt;/font&gt;" style="ellipse;whiteSpace=wrap;html=1;" parent="1" vertex="1">
          <mxGeometry x="170" y="895" width="120" height="50" as="geometry" />
        </mxCell>
        <mxCell id="TaJbaXzCYBkzO7Uhbq2M-18" value="" style="endArrow=none;html=1;rounded=0;entryX=0.5;entryY=0.5;entryDx=0;entryDy=0;entryPerimeter=0;exitX=0;exitY=0.5;exitDx=0;exitDy=0;" parent="1" source="bIR2pzUK-BUm1ZlaJqXN-11" target="bIR2pzUK-BUm1ZlaJqXN-7" edge="1">
          <mxGeometry width="50" height="50" relative="1" as="geometry">
            <mxPoint x="850" y="325" as="sourcePoint" />
            <mxPoint x="900" y="275" as="targetPoint" />
          </mxGeometry>
        </mxCell>
        <mxCell id="TaJbaXzCYBkzO7Uhbq2M-19" value="" style="endArrow=none;html=1;rounded=0;entryX=0.5;entryY=0.5;entryDx=0;entryDy=0;entryPerimeter=0;exitX=0;exitY=0.5;exitDx=0;exitDy=0;" parent="1" source="bIR2pzUK-BUm1ZlaJqXN-10" target="bIR2pzUK-BUm1ZlaJqXN-7" edge="1">
          <mxGeometry width="50" height="50" relative="1" as="geometry">
            <mxPoint x="200" y="125" as="sourcePoint" />
            <mxPoint x="105" y="215" as="targetPoint" />
          </mxGeometry>
        </mxCell>
        <mxCell id="TaJbaXzCYBkzO7Uhbq2M-20" value="" style="endArrow=none;html=1;rounded=0;entryX=0.5;entryY=0.5;entryDx=0;entryDy=0;entryPerimeter=0;exitX=0;exitY=0.5;exitDx=0;exitDy=0;" parent="1" source="bIR2pzUK-BUm1ZlaJqXN-54" target="bIR2pzUK-BUm1ZlaJqXN-7" edge="1">
          <mxGeometry width="50" height="50" relative="1" as="geometry">
            <mxPoint x="200" y="205" as="sourcePoint" />
            <mxPoint x="105" y="215" as="targetPoint" />
          </mxGeometry>
        </mxCell>
        <mxCell id="TaJbaXzCYBkzO7Uhbq2M-21" value="" style="endArrow=none;html=1;rounded=0;exitX=0;exitY=0.5;exitDx=0;exitDy=0;entryX=0.5;entryY=0.5;entryDx=0;entryDy=0;entryPerimeter=0;" parent="1" source="TaJbaXzCYBkzO7Uhbq2M-11" target="bIR2pzUK-BUm1ZlaJqXN-7" edge="1">
          <mxGeometry width="50" height="50" relative="1" as="geometry">
            <mxPoint x="200" y="285" as="sourcePoint" />
            <mxPoint x="105" y="215" as="targetPoint" />
          </mxGeometry>
        </mxCell>
        <mxCell id="TaJbaXzCYBkzO7Uhbq2M-22" value="" style="endArrow=none;html=1;rounded=0;entryX=0.5;entryY=0.5;entryDx=0;entryDy=0;entryPerimeter=0;exitX=0;exitY=0.5;exitDx=0;exitDy=0;" parent="1" source="bIR2pzUK-BUm1ZlaJqXN-22" target="bIR2pzUK-BUm1ZlaJqXN-8" edge="1">
          <mxGeometry width="50" height="50" relative="1" as="geometry">
            <mxPoint x="850" y="605" as="sourcePoint" />
            <mxPoint x="900" y="555" as="targetPoint" />
          </mxGeometry>
        </mxCell>
        <mxCell id="TaJbaXzCYBkzO7Uhbq2M-23" value="" style="endArrow=none;html=1;rounded=0;entryX=0.5;entryY=0.5;entryDx=0;entryDy=0;entryPerimeter=0;exitX=0;exitY=0.5;exitDx=0;exitDy=0;" parent="1" source="bIR2pzUK-BUm1ZlaJqXN-82" target="bIR2pzUK-BUm1ZlaJqXN-8" edge="1">
          <mxGeometry width="50" height="50" relative="1" as="geometry">
            <mxPoint x="200" y="570" as="sourcePoint" />
            <mxPoint x="105" y="625" as="targetPoint" />
          </mxGeometry>
        </mxCell>
        <mxCell id="TaJbaXzCYBkzO7Uhbq2M-24" value="" style="endArrow=none;html=1;rounded=0;entryX=0.5;entryY=0.5;entryDx=0;entryDy=0;entryPerimeter=0;exitX=0;exitY=0.5;exitDx=0;exitDy=0;" parent="1" source="TaJbaXzCYBkzO7Uhbq2M-15" target="bIR2pzUK-BUm1ZlaJqXN-8" edge="1">
          <mxGeometry width="50" height="50" relative="1" as="geometry">
            <mxPoint x="200" y="640" as="sourcePoint" />
            <mxPoint x="105" y="625" as="targetPoint" />
          </mxGeometry>
        </mxCell>
        <mxCell id="TaJbaXzCYBkzO7Uhbq2M-26" value="" style="endArrow=none;html=1;rounded=0;exitX=0;exitY=0.5;exitDx=0;exitDy=0;entryX=0.5;entryY=0.5;entryDx=0;entryDy=0;entryPerimeter=0;" parent="1" source="TaJbaXzCYBkzO7Uhbq2M-17" target="bIR2pzUK-BUm1ZlaJqXN-8" edge="1">
          <mxGeometry width="50" height="50" relative="1" as="geometry">
            <mxPoint x="200" y="850" as="sourcePoint" />
            <mxPoint x="100" y="615" as="targetPoint" />
          </mxGeometry>
        </mxCell>
        <mxCell id="bIR2pzUK-BUm1ZlaJqXN-8" value="Registered&lt;div&gt;User&lt;/div&gt;" style="shape=umlActor;verticalLabelPosition=bottom;verticalAlign=top;html=1;outlineConnect=0;" parent="1" vertex="1">
          <mxGeometry x="20" y="705" width="30" height="60" as="geometry" />
        </mxCell>
        <mxCell id="TaJbaXzCYBkzO7Uhbq2M-31" value="" style="endArrow=open;dashed=1;html=1;rounded=0;exitX=1;exitY=0.5;exitDx=0;exitDy=0;entryX=0;entryY=0.5;entryDx=0;entryDy=0;startArrow=none;startFill=0;endFill=0;endSize=10;" parent="1" source="bIR2pzUK-BUm1ZlaJqXN-54" target="TaJbaXzCYBkzO7Uhbq2M-8" edge="1">
          <mxGeometry width="50" height="50" relative="1" as="geometry">
            <mxPoint x="300" y="249" as="sourcePoint" />
            <mxPoint x="490" y="249" as="targetPoint" />
          </mxGeometry>
        </mxCell>
        <mxCell id="TaJbaXzCYBkzO7Uhbq2M-32" value="&amp;lt;&amp;lt;include&amp;gt;&amp;gt;" style="edgeLabel;html=1;align=center;verticalAlign=middle;resizable=0;points=[];" parent="TaJbaXzCYBkzO7Uhbq2M-31" vertex="1" connectable="0">
          <mxGeometry x="0.0063" y="-2" relative="1" as="geometry">
            <mxPoint as="offset" />
          </mxGeometry>
        </mxCell>
        <mxCell id="TaJbaXzCYBkzO7Uhbq2M-37" value="" style="endArrow=open;dashed=1;html=1;rounded=0;exitX=1;exitY=0.5;exitDx=0;exitDy=0;entryX=0;entryY=0.5;entryDx=0;entryDy=0;startArrow=none;startFill=0;endFill=0;endSize=10;" parent="1" source="TaJbaXzCYBkzO7Uhbq2M-11" target="TaJbaXzCYBkzO7Uhbq2M-13" edge="1">
          <mxGeometry width="50" height="50" relative="1" as="geometry">
            <mxPoint x="300" y="285" as="sourcePoint" />
            <mxPoint x="490" y="385" as="targetPoint" />
          </mxGeometry>
        </mxCell>
        <mxCell id="TaJbaXzCYBkzO7Uhbq2M-38" value="&amp;lt;&amp;lt;include&amp;gt;&amp;gt;" style="edgeLabel;html=1;align=center;verticalAlign=middle;resizable=0;points=[];" parent="TaJbaXzCYBkzO7Uhbq2M-37" vertex="1" connectable="0">
          <mxGeometry x="0.0063" y="-2" relative="1" as="geometry">
            <mxPoint as="offset" />
          </mxGeometry>
        </mxCell>
        <mxCell id="TaJbaXzCYBkzO7Uhbq2M-39" value="" style="endArrow=open;dashed=1;html=1;rounded=0;exitX=1;exitY=0.5;exitDx=0;exitDy=0;entryX=0;entryY=0.5;entryDx=0;entryDy=0;startArrow=none;startFill=0;endFill=0;endSize=10;" parent="1" source="TaJbaXzCYBkzO7Uhbq2M-11" target="TaJbaXzCYBkzO7Uhbq2M-14" edge="1">
          <mxGeometry width="50" height="50" relative="1" as="geometry">
            <mxPoint x="300" y="470" as="sourcePoint" />
            <mxPoint x="490" y="470" as="targetPoint" />
          </mxGeometry>
        </mxCell>
        <mxCell id="TaJbaXzCYBkzO7Uhbq2M-40" value="&amp;lt;&amp;lt;include&amp;gt;&amp;gt;" style="edgeLabel;html=1;align=center;verticalAlign=middle;resizable=0;points=[];" parent="TaJbaXzCYBkzO7Uhbq2M-39" vertex="1" connectable="0">
          <mxGeometry x="0.0063" y="-2" relative="1" as="geometry">
            <mxPoint as="offset" />
          </mxGeometry>
        </mxCell>
        <mxCell id="TaJbaXzCYBkzO7Uhbq2M-41" value="" style="endArrow=open;dashed=1;html=1;rounded=0;exitX=1;exitY=0.5;exitDx=0;exitDy=0;entryX=0;entryY=0.5;entryDx=0;entryDy=0;startArrow=none;startFill=0;endFill=0;endSize=10;" parent="1" source="TaJbaXzCYBkzO7Uhbq2M-15" target="TaJbaXzCYBkzO7Uhbq2M-16" edge="1">
          <mxGeometry width="50" height="50" relative="1" as="geometry">
            <mxPoint x="280" y="675" as="sourcePoint" />
            <mxPoint x="470" y="725" as="targetPoint" />
          </mxGeometry>
        </mxCell>
        <mxCell id="TaJbaXzCYBkzO7Uhbq2M-42" value="&amp;lt;&amp;lt;include&amp;gt;&amp;gt;" style="edgeLabel;html=1;align=center;verticalAlign=middle;resizable=0;points=[];" parent="TaJbaXzCYBkzO7Uhbq2M-41" vertex="1" connectable="0">
          <mxGeometry x="0.0063" y="-2" relative="1" as="geometry">
            <mxPoint as="offset" />
          </mxGeometry>
        </mxCell>
        <mxCell id="TaJbaXzCYBkzO7Uhbq2M-45" value="" style="endArrow=open;dashed=1;html=1;rounded=0;exitX=0;exitY=0.5;exitDx=0;exitDy=0;entryX=1;entryY=0.5;entryDx=0;entryDy=0;startArrow=none;startFill=0;endFill=0;endSize=10;" parent="1" source="bIR2pzUK-BUm1ZlaJqXN-50" target="bIR2pzUK-BUm1ZlaJqXN-82" edge="1">
          <mxGeometry width="50" height="50" relative="1" as="geometry">
            <mxPoint x="270" y="679.5" as="sourcePoint" />
            <mxPoint x="460" y="679.5" as="targetPoint" />
          </mxGeometry>
        </mxCell>
        <mxCell id="TaJbaXzCYBkzO7Uhbq2M-46" value="&amp;lt;&amp;lt;extend&amp;gt;&amp;gt;" style="edgeLabel;html=1;align=center;verticalAlign=middle;resizable=0;points=[];" parent="TaJbaXzCYBkzO7Uhbq2M-45" vertex="1" connectable="0">
          <mxGeometry x="0.0063" y="-2" relative="1" as="geometry">
            <mxPoint as="offset" />
          </mxGeometry>
        </mxCell>
        <mxCell id="TaJbaXzCYBkzO7Uhbq2M-48" value="" style="endArrow=open;dashed=1;html=1;rounded=0;exitX=0;exitY=0.5;exitDx=0;exitDy=0;entryX=1;entryY=0.5;entryDx=0;entryDy=0;startArrow=none;startFill=0;endFill=0;endSize=10;" parent="1" source="bIR2pzUK-BUm1ZlaJqXN-24" target="bIR2pzUK-BUm1ZlaJqXN-82" edge="1">
          <mxGeometry width="50" height="50" relative="1" as="geometry">
            <mxPoint x="490" y="640" as="sourcePoint" />
            <mxPoint x="300" y="640" as="targetPoint" />
          </mxGeometry>
        </mxCell>
        <mxCell id="TaJbaXzCYBkzO7Uhbq2M-49" value="&amp;lt;&amp;lt;extend&amp;gt;&amp;gt;" style="edgeLabel;html=1;align=center;verticalAlign=middle;resizable=0;points=[];" parent="TaJbaXzCYBkzO7Uhbq2M-48" vertex="1" connectable="0">
          <mxGeometry x="0.0063" y="-2" relative="1" as="geometry">
            <mxPoint as="offset" />
          </mxGeometry>
        </mxCell>
        <mxCell id="TaJbaXzCYBkzO7Uhbq2M-50" value="" style="endArrow=open;dashed=1;html=1;rounded=0;exitX=1;exitY=0.5;exitDx=0;exitDy=0;entryX=0;entryY=0.5;entryDx=0;entryDy=0;startArrow=none;startFill=0;endFill=0;endSize=10;" parent="1" source="EwrK2m52c0WO0o0mVh6--6" target="bIR2pzUK-BUm1ZlaJqXN-84" edge="1">
          <mxGeometry width="50" height="50" relative="1" as="geometry">
            <mxPoint x="610" y="505" as="sourcePoint" />
            <mxPoint x="500" y="385" as="targetPoint" />
          </mxGeometry>
        </mxCell>
        <mxCell id="TaJbaXzCYBkzO7Uhbq2M-51" value="&amp;lt;&amp;lt;include&amp;gt;&amp;gt;" style="edgeLabel;html=1;align=center;verticalAlign=middle;resizable=0;points=[];" parent="TaJbaXzCYBkzO7Uhbq2M-50" vertex="1" connectable="0">
          <mxGeometry x="0.0063" y="-2" relative="1" as="geometry">
            <mxPoint as="offset" />
          </mxGeometry>
        </mxCell>
        <mxCell id="TaJbaXzCYBkzO7Uhbq2M-52" value="" style="endArrow=open;dashed=1;html=1;rounded=0;exitX=0;exitY=0.5;exitDx=0;exitDy=0;entryX=1;entryY=0.5;entryDx=0;entryDy=0;startArrow=none;startFill=0;endFill=0;endSize=10;" parent="1" source="TaJbaXzCYBkzO7Uhbq2M-3" target="EwrK2m52c0WO0o0mVh6--6" edge="1">
          <mxGeometry width="50" height="50" relative="1" as="geometry">
            <mxPoint x="500" y="820" as="sourcePoint" />
            <mxPoint x="610" y="505" as="targetPoint" />
          </mxGeometry>
        </mxCell>
        <mxCell id="TaJbaXzCYBkzO7Uhbq2M-53" value="&amp;lt;&amp;lt;extend&amp;gt;&amp;gt;" style="edgeLabel;html=1;align=center;verticalAlign=middle;resizable=0;points=[];" parent="TaJbaXzCYBkzO7Uhbq2M-52" vertex="1" connectable="0">
          <mxGeometry x="0.0063" y="-2" relative="1" as="geometry">
            <mxPoint as="offset" />
          </mxGeometry>
        </mxCell>
        <mxCell id="EwrK2m52c0WO0o0mVh6--1" value="View Movies &amp;amp; Showtimes" style="ellipse;whiteSpace=wrap;html=1;" parent="1" vertex="1">
          <mxGeometry x="170" y="140" width="120" height="50" as="geometry" />
        </mxCell>
        <mxCell id="EwrK2m52c0WO0o0mVh6--2" value="" style="endArrow=none;html=1;rounded=0;exitX=0.5;exitY=0.5;exitDx=0;exitDy=0;exitPerimeter=0;entryX=0;entryY=0.5;entryDx=0;entryDy=0;" parent="1" source="bIR2pzUK-BUm1ZlaJqXN-7" target="EwrK2m52c0WO0o0mVh6--1" edge="1">
          <mxGeometry width="50" height="50" relative="1" as="geometry">
            <mxPoint x="400" y="220" as="sourcePoint" />
            <mxPoint x="450" y="170" as="targetPoint" />
          </mxGeometry>
        </mxCell>
        <mxCell id="EwrK2m52c0WO0o0mVh6--3" value="" style="endArrow=open;dashed=1;html=1;rounded=0;exitX=0;exitY=0.5;exitDx=0;exitDy=0;entryX=1;entryY=0.5;entryDx=0;entryDy=0;startArrow=none;startFill=0;endFill=0;endSize=10;" parent="1" source="bIR2pzUK-BUm1ZlaJqXN-13" target="EwrK2m52c0WO0o0mVh6--1" edge="1">
          <mxGeometry width="50" height="50" relative="1" as="geometry">
            <mxPoint x="740" y="360" as="sourcePoint" />
            <mxPoint x="610" y="335" as="targetPoint" />
          </mxGeometry>
        </mxCell>
        <mxCell id="EwrK2m52c0WO0o0mVh6--4" value="&amp;lt;&amp;lt;extend&amp;gt;&amp;gt;" style="edgeLabel;html=1;align=center;verticalAlign=middle;resizable=0;points=[];" parent="EwrK2m52c0WO0o0mVh6--3" vertex="1" connectable="0">
          <mxGeometry x="0.0063" y="-2" relative="1" as="geometry">
            <mxPoint as="offset" />
          </mxGeometry>
        </mxCell>
        <mxCell id="EwrK2m52c0WO0o0mVh6--6" value="Make Payment" style="ellipse;whiteSpace=wrap;" parent="1" vertex="1">
          <mxGeometry x="170" y="460" width="120" height="50" as="geometry" />
        </mxCell>
        <mxCell id="EwrK2m52c0WO0o0mVh6--8" value="" style="endArrow=none;html=1;rounded=0;exitX=0.5;exitY=0.5;exitDx=0;exitDy=0;exitPerimeter=0;entryX=0;entryY=0.5;entryDx=0;entryDy=0;" parent="1" source="bIR2pzUK-BUm1ZlaJqXN-7" target="EwrK2m52c0WO0o0mVh6--6" edge="1">
          <mxGeometry width="50" height="50" relative="1" as="geometry">
            <mxPoint x="420" y="310" as="sourcePoint" />
            <mxPoint x="470" y="260" as="targetPoint" />
          </mxGeometry>
        </mxCell>
        <mxCell id="EwrK2m52c0WO0o0mVh6--10" value="Receive Ticket and Receipt via Email" style="ellipse;whiteSpace=wrap;html=1;" parent="1" vertex="1">
          <mxGeometry x="480" y="260" width="120" height="50" as="geometry" />
        </mxCell>
        <mxCell id="EwrK2m52c0WO0o0mVh6--11" value="" style="endArrow=open;dashed=1;html=1;rounded=0;exitX=1;exitY=0.5;exitDx=0;exitDy=0;entryX=-0.008;entryY=0.38;entryDx=0;entryDy=0;startArrow=none;startFill=0;endFill=0;endSize=10;entryPerimeter=0;" parent="1" source="bIR2pzUK-BUm1ZlaJqXN-54" target="EwrK2m52c0WO0o0mVh6--10" edge="1">
          <mxGeometry width="50" height="50" relative="1" as="geometry">
            <mxPoint x="300" y="245" as="sourcePoint" />
            <mxPoint x="490" y="245" as="targetPoint" />
          </mxGeometry>
        </mxCell>
        <mxCell id="EwrK2m52c0WO0o0mVh6--12" value="&amp;lt;&amp;lt;include&amp;gt;&amp;gt;" style="edgeLabel;html=1;align=center;verticalAlign=middle;resizable=0;points=[];" parent="EwrK2m52c0WO0o0mVh6--11" vertex="1" connectable="0">
          <mxGeometry x="0.0063" y="-2" relative="1" as="geometry">
            <mxPoint as="offset" />
          </mxGeometry>
        </mxCell>
        <mxCell id="EwrK2m52c0WO0o0mVh6--14" style="edgeStyle=orthogonalEdgeStyle;rounded=0;orthogonalLoop=1;jettySize=auto;html=1;exitX=0.5;exitY=0.5;exitDx=0;exitDy=0;exitPerimeter=0;entryX=1;entryY=0.5;entryDx=0;entryDy=0;endArrow=none;endFill=0;" parent="1" source="EwrK2m52c0WO0o0mVh6--13" target="bIR2pzUK-BUm1ZlaJqXN-84" edge="1">
          <mxGeometry relative="1" as="geometry" />
        </mxCell>
        <mxCell id="EwrK2m52c0WO0o0mVh6--13" value="Bank" style="shape=umlActor;verticalLabelPosition=bottom;verticalAlign=top;html=1;outlineConnect=0;" parent="1" vertex="1">
          <mxGeometry x="700" y="505" width="30" height="60" as="geometry" />
        </mxCell>
        <mxCell id="EwrK2m52c0WO0o0mVh6--16" style="edgeStyle=orthogonalEdgeStyle;rounded=0;orthogonalLoop=1;jettySize=auto;html=1;exitX=0.5;exitY=0.5;exitDx=0;exitDy=0;exitPerimeter=0;entryX=1;entryY=0.3;entryDx=0;entryDy=0;endArrow=none;endFill=0;entryPerimeter=0;" parent="1" source="EwrK2m52c0WO0o0mVh6--13" target="bIR2pzUK-BUm1ZlaJqXN-24" edge="1">
          <mxGeometry relative="1" as="geometry">
            <mxPoint x="795" y="565" as="sourcePoint" />
            <mxPoint x="610" y="410" as="targetPoint" />
          </mxGeometry>
        </mxCell>
        <mxCell id="EwrK2m52c0WO0o0mVh6--17" style="edgeStyle=orthogonalEdgeStyle;rounded=0;orthogonalLoop=1;jettySize=auto;html=1;exitX=0.5;exitY=0.5;exitDx=0;exitDy=0;exitPerimeter=0;entryX=1;entryY=0.5;entryDx=0;entryDy=0;endArrow=none;endFill=0;" parent="1" source="EwrK2m52c0WO0o0mVh6--13" target="TaJbaXzCYBkzO7Uhbq2M-13" edge="1">
          <mxGeometry relative="1" as="geometry">
            <mxPoint x="775" y="560" as="sourcePoint" />
            <mxPoint x="610" y="545" as="targetPoint" />
          </mxGeometry>
        </mxCell>
        <mxCell id="EwrK2m52c0WO0o0mVh6--18" style="edgeStyle=orthogonalEdgeStyle;rounded=0;orthogonalLoop=1;jettySize=auto;html=1;exitX=0.5;exitY=0.5;exitDx=0;exitDy=0;exitPerimeter=0;entryX=1;entryY=0.5;entryDx=0;entryDy=0;endArrow=none;endFill=0;" parent="1" source="EwrK2m52c0WO0o0mVh6--13" target="TaJbaXzCYBkzO7Uhbq2M-16" edge="1">
          <mxGeometry relative="1" as="geometry">
            <mxPoint x="775" y="560" as="sourcePoint" />
            <mxPoint x="610" y="625" as="targetPoint" />
          </mxGeometry>
        </mxCell>
        <mxCell id="EwrK2m52c0WO0o0mVh6--19" value="AcmePlexApp" style="shape=umlActor;verticalLabelPosition=bottom;verticalAlign=top;html=1;outlineConnect=0;" parent="1" vertex="1">
          <mxGeometry x="800" y="205" width="30" height="60" as="geometry" />
        </mxCell>
        <mxCell id="EwrK2m52c0WO0o0mVh6--20" style="edgeStyle=orthogonalEdgeStyle;rounded=0;orthogonalLoop=1;jettySize=auto;html=1;exitX=0.5;exitY=0.5;exitDx=0;exitDy=0;exitPerimeter=0;entryX=1;entryY=0.5;entryDx=0;entryDy=0;endArrow=none;endFill=0;" parent="1" source="EwrK2m52c0WO0o0mVh6--19" target="TaJbaXzCYBkzO7Uhbq2M-14" edge="1">
          <mxGeometry relative="1" as="geometry">
            <mxPoint x="735" y="270" as="sourcePoint" />
            <mxPoint x="620" y="140" as="targetPoint" />
          </mxGeometry>
        </mxCell>
        <mxCell id="EwrK2m52c0WO0o0mVh6--21" style="edgeStyle=orthogonalEdgeStyle;rounded=0;orthogonalLoop=1;jettySize=auto;html=1;exitX=0.5;exitY=0.5;exitDx=0;exitDy=0;exitPerimeter=0;entryX=1.017;entryY=0.38;entryDx=0;entryDy=0;endArrow=none;endFill=0;entryPerimeter=0;" parent="1" source="EwrK2m52c0WO0o0mVh6--19" target="EwrK2m52c0WO0o0mVh6--10" edge="1">
          <mxGeometry relative="1" as="geometry">
            <mxPoint x="805" y="100" as="sourcePoint" />
            <mxPoint x="610" y="365" as="targetPoint" />
          </mxGeometry>
        </mxCell>
        <mxCell id="EwrK2m52c0WO0o0mVh6--22" style="edgeStyle=orthogonalEdgeStyle;rounded=0;orthogonalLoop=1;jettySize=auto;html=1;exitX=0.5;exitY=0.5;exitDx=0;exitDy=0;exitPerimeter=0;entryX=1;entryY=0.5;entryDx=0;entryDy=0;endArrow=none;endFill=0;" parent="1" source="EwrK2m52c0WO0o0mVh6--19" target="TaJbaXzCYBkzO7Uhbq2M-12" edge="1">
          <mxGeometry relative="1" as="geometry">
            <mxPoint x="825" y="245" as="sourcePoint" />
            <mxPoint x="610" y="365" as="targetPoint" />
            <Array as="points">
              <mxPoint x="770" y="235" />
              <mxPoint x="770" y="845" />
            </Array>
          </mxGeometry>
        </mxCell>
        <mxCell id="EwrK2m52c0WO0o0mVh6--25" style="edgeStyle=orthogonalEdgeStyle;rounded=0;orthogonalLoop=1;jettySize=auto;html=1;exitX=0.5;exitY=0.5;exitDx=0;exitDy=0;exitPerimeter=0;entryX=1;entryY=0.5;entryDx=0;entryDy=0;endArrow=none;endFill=0;" parent="1" source="EwrK2m52c0WO0o0mVh6--19" target="bIR2pzUK-BUm1ZlaJqXN-50" edge="1">
          <mxGeometry relative="1" as="geometry">
            <mxPoint x="825" y="245" as="sourcePoint" />
            <mxPoint x="610" y="365" as="targetPoint" />
            <Array as="points">
              <mxPoint x="770" y="235" />
              <mxPoint x="770" y="675" />
            </Array>
          </mxGeometry>
        </mxCell>
        <mxCell id="EwrK2m52c0WO0o0mVh6--27" style="edgeStyle=orthogonalEdgeStyle;rounded=0;orthogonalLoop=1;jettySize=auto;html=1;exitX=0.5;exitY=0.5;exitDx=0;exitDy=0;exitPerimeter=0;entryX=1;entryY=0.5;entryDx=0;entryDy=0;endArrow=none;endFill=0;" parent="1" source="EwrK2m52c0WO0o0mVh6--19" target="bIR2pzUK-BUm1ZlaJqXN-22" edge="1">
          <mxGeometry relative="1" as="geometry">
            <mxPoint x="825" y="245" as="sourcePoint" />
            <mxPoint x="610" y="365" as="targetPoint" />
            <Array as="points">
              <mxPoint x="770" y="235" />
              <mxPoint x="770" y="705" />
            </Array>
          </mxGeometry>
        </mxCell>
        <mxCell id="gwmYk7OU8eAEjdsw6BXz-1" value="" style="endArrow=none;html=1;rounded=0;entryX=0.5;entryY=0.5;entryDx=0;entryDy=0;entryPerimeter=0;exitX=0;exitY=0.5;exitDx=0;exitDy=0;" edge="1" parent="1" target="gwmYk7OU8eAEjdsw6BXz-12" source="gwmYk7OU8eAEjdsw6BXz-68">
          <mxGeometry width="50" height="50" relative="1" as="geometry">
            <mxPoint x="1040" y="857.5" as="sourcePoint" />
            <mxPoint x="975" y="637.5" as="targetPoint" />
          </mxGeometry>
        </mxCell>
        <mxCell id="gwmYk7OU8eAEjdsw6BXz-2" value="User" style="shape=umlActor;verticalLabelPosition=bottom;verticalAlign=top;html=1;outlineConnect=0;" vertex="1" parent="1">
          <mxGeometry x="890" y="262.5" width="30" height="60" as="geometry" />
        </mxCell>
        <mxCell id="gwmYk7OU8eAEjdsw6BXz-3" value="" style="edgeStyle=orthogonalEdgeStyle;rounded=0;orthogonalLoop=1;jettySize=auto;html=1;endArrow=block;endFill=0;endSize=21;" edge="1" parent="1" source="gwmYk7OU8eAEjdsw6BXz-12">
          <mxGeometry relative="1" as="geometry">
            <mxPoint x="905" y="347.5" as="targetPoint" />
          </mxGeometry>
        </mxCell>
        <mxCell id="gwmYk7OU8eAEjdsw6BXz-4" value="" style="endArrow=none;html=1;rounded=0;entryX=0.5;entryY=0.5;entryDx=0;entryDy=0;entryPerimeter=0;exitX=0;exitY=0.5;exitDx=0;exitDy=0;" edge="1" parent="1" target="gwmYk7OU8eAEjdsw6BXz-2" source="gwmYk7OU8eAEjdsw6BXz-15">
          <mxGeometry width="50" height="50" relative="1" as="geometry">
            <mxPoint x="1040" y="37.5" as="sourcePoint" />
            <mxPoint x="1770" y="287.5" as="targetPoint" />
          </mxGeometry>
        </mxCell>
        <mxCell id="gwmYk7OU8eAEjdsw6BXz-5" value="" style="endArrow=none;html=1;rounded=0;entryX=0.5;entryY=0.5;entryDx=0;entryDy=0;entryPerimeter=0;exitX=0;exitY=0.5;exitDx=0;exitDy=0;" edge="1" parent="1" target="gwmYk7OU8eAEjdsw6BXz-2" source="gwmYk7OU8eAEjdsw6BXz-35">
          <mxGeometry width="50" height="50" relative="1" as="geometry">
            <mxPoint x="1040" y="107.5" as="sourcePoint" />
            <mxPoint x="975" y="227.5" as="targetPoint" />
          </mxGeometry>
        </mxCell>
        <mxCell id="gwmYk7OU8eAEjdsw6BXz-6" value="" style="endArrow=none;html=1;rounded=0;entryX=0.5;entryY=0.5;entryDx=0;entryDy=0;entryPerimeter=0;exitX=0;exitY=0.5;exitDx=0;exitDy=0;" edge="1" parent="1" target="gwmYk7OU8eAEjdsw6BXz-2" source="gwmYk7OU8eAEjdsw6BXz-29">
          <mxGeometry width="50" height="50" relative="1" as="geometry">
            <mxPoint x="1040" y="400" as="sourcePoint" />
            <mxPoint x="975" y="227.5" as="targetPoint" />
          </mxGeometry>
        </mxCell>
        <mxCell id="gwmYk7OU8eAEjdsw6BXz-8" value="" style="endArrow=none;html=1;rounded=0;entryX=0.5;entryY=0.5;entryDx=0;entryDy=0;entryPerimeter=0;exitX=0;exitY=0.5;exitDx=0;exitDy=0;" edge="1" parent="1" target="gwmYk7OU8eAEjdsw6BXz-12">
          <mxGeometry width="50" height="50" relative="1" as="geometry">
            <mxPoint x="1040" y="717.5" as="sourcePoint" />
            <mxPoint x="1770" y="567.5" as="targetPoint" />
          </mxGeometry>
        </mxCell>
        <mxCell id="gwmYk7OU8eAEjdsw6BXz-9" value="" style="endArrow=none;html=1;rounded=0;entryX=0.5;entryY=0.5;entryDx=0;entryDy=0;entryPerimeter=0;exitX=0;exitY=0.5;exitDx=0;exitDy=0;" edge="1" parent="1" target="gwmYk7OU8eAEjdsw6BXz-12" source="gwmYk7OU8eAEjdsw6BXz-53">
          <mxGeometry width="50" height="50" relative="1" as="geometry">
            <mxPoint x="1040" y="637.5" as="sourcePoint" />
            <mxPoint x="975" y="637.5" as="targetPoint" />
          </mxGeometry>
        </mxCell>
        <mxCell id="gwmYk7OU8eAEjdsw6BXz-11" value="" style="endArrow=none;html=1;rounded=0;exitX=0;exitY=0.5;exitDx=0;exitDy=0;entryX=0.5;entryY=0.5;entryDx=0;entryDy=0;entryPerimeter=0;" edge="1" parent="1" target="gwmYk7OU8eAEjdsw6BXz-12" source="gwmYk7OU8eAEjdsw6BXz-69">
          <mxGeometry width="50" height="50" relative="1" as="geometry">
            <mxPoint x="1040" y="932.5" as="sourcePoint" />
            <mxPoint x="970" y="627.5" as="targetPoint" />
          </mxGeometry>
        </mxCell>
        <mxCell id="gwmYk7OU8eAEjdsw6BXz-12" value="Registered&lt;div&gt;User&lt;/div&gt;" style="shape=umlActor;verticalLabelPosition=bottom;verticalAlign=top;html=1;outlineConnect=0;" vertex="1" parent="1">
          <mxGeometry x="890" y="717.5" width="30" height="60" as="geometry" />
        </mxCell>
        <mxCell id="gwmYk7OU8eAEjdsw6BXz-13" value="" style="endArrow=none;html=1;rounded=0;exitX=0.5;exitY=0.5;exitDx=0;exitDy=0;exitPerimeter=0;entryX=0;entryY=0.5;entryDx=0;entryDy=0;" edge="1" parent="1" source="gwmYk7OU8eAEjdsw6BXz-2" target="gwmYk7OU8eAEjdsw6BXz-28">
          <mxGeometry width="50" height="50" relative="1" as="geometry">
            <mxPoint x="1270" y="232.5" as="sourcePoint" />
            <mxPoint x="1040" y="177.5" as="targetPoint" />
          </mxGeometry>
        </mxCell>
        <mxCell id="gwmYk7OU8eAEjdsw6BXz-15" value="Select Theater" style="ellipse;whiteSpace=wrap;html=1;" vertex="1" parent="1">
          <mxGeometry x="1040" y="50" width="120" height="50" as="geometry" />
        </mxCell>
        <mxCell id="gwmYk7OU8eAEjdsw6BXz-17" value="Bank" style="shape=umlActor;verticalLabelPosition=bottom;verticalAlign=top;html=1;outlineConnect=0;" vertex="1" parent="1">
          <mxGeometry x="1630" y="400" width="30" height="60" as="geometry" />
        </mxCell>
        <mxCell id="gwmYk7OU8eAEjdsw6BXz-18" value="Opt in/out of notifications" style="ellipse;whiteSpace=wrap;html=1;" vertex="1" parent="1">
          <mxGeometry x="1380" y="565" width="120" height="50" as="geometry" />
        </mxCell>
        <mxCell id="gwmYk7OU8eAEjdsw6BXz-19" value="Manage&amp;nbsp;&lt;div&gt;Account&lt;/div&gt;" style="ellipse;whiteSpace=wrap;html=1;" vertex="1" parent="1">
          <mxGeometry x="1040" y="690" width="120" height="50" as="geometry" />
        </mxCell>
        <mxCell id="gwmYk7OU8eAEjdsw6BXz-22" value="" style="endArrow=open;dashed=1;html=1;rounded=0;exitX=0;exitY=0.5;exitDx=0;exitDy=0;entryX=1;entryY=0.5;entryDx=0;entryDy=0;startArrow=none;startFill=0;endFill=0;endSize=10;" edge="1" parent="1" source="gwmYk7OU8eAEjdsw6BXz-26">
          <mxGeometry width="50" height="50" relative="1" as="geometry">
            <mxPoint x="1350" y="765" as="sourcePoint" />
            <mxPoint x="1160" y="715" as="targetPoint" />
          </mxGeometry>
        </mxCell>
        <mxCell id="gwmYk7OU8eAEjdsw6BXz-23" value="&amp;lt;&amp;lt;extend&amp;gt;&amp;gt;" style="edgeLabel;html=1;align=center;verticalAlign=middle;resizable=0;points=[];" vertex="1" connectable="0" parent="gwmYk7OU8eAEjdsw6BXz-22">
          <mxGeometry x="0.0063" y="-2" relative="1" as="geometry">
            <mxPoint as="offset" />
          </mxGeometry>
        </mxCell>
        <mxCell id="gwmYk7OU8eAEjdsw6BXz-24" value="" style="endArrow=open;dashed=1;html=1;rounded=0;exitX=0;exitY=0.5;exitDx=0;exitDy=0;entryX=1;entryY=0.5;entryDx=0;entryDy=0;startArrow=none;startFill=0;endFill=0;endSize=10;" edge="1" parent="1" source="gwmYk7OU8eAEjdsw6BXz-27">
          <mxGeometry width="50" height="50" relative="1" as="geometry">
            <mxPoint x="1350" y="715" as="sourcePoint" />
            <mxPoint x="1160" y="715" as="targetPoint" />
          </mxGeometry>
        </mxCell>
        <mxCell id="gwmYk7OU8eAEjdsw6BXz-25" value="&amp;lt;&amp;lt;extend&amp;gt;&amp;gt;" style="edgeLabel;html=1;align=center;verticalAlign=middle;resizable=0;points=[];" vertex="1" connectable="0" parent="gwmYk7OU8eAEjdsw6BXz-24">
          <mxGeometry x="0.0063" y="-2" relative="1" as="geometry">
            <mxPoint as="offset" />
          </mxGeometry>
        </mxCell>
        <mxCell id="gwmYk7OU8eAEjdsw6BXz-26" value="Pay Annual&amp;nbsp;&lt;div&gt;Account Fee&lt;/div&gt;" style="ellipse;whiteSpace=wrap;html=1;" vertex="1" parent="1">
          <mxGeometry x="1380" y="722.5" width="120" height="50" as="geometry" />
        </mxCell>
        <mxCell id="gwmYk7OU8eAEjdsw6BXz-27" value="Cancel Subscription" style="ellipse;whiteSpace=wrap;html=1;" vertex="1" parent="1">
          <mxGeometry x="1380" y="650" width="120" height="50" as="geometry" />
        </mxCell>
        <mxCell id="gwmYk7OU8eAEjdsw6BXz-28" value="Search for moive" style="ellipse;whiteSpace=wrap;" vertex="1" parent="1">
          <mxGeometry x="1045" y="300" width="120" height="50" as="geometry" />
        </mxCell>
        <mxCell id="gwmYk7OU8eAEjdsw6BXz-29" value="Browse all movies" style="ellipse;whiteSpace=wrap;html=1;" vertex="1" parent="1">
          <mxGeometry x="1045" y="375" width="120" height="50" as="geometry" />
        </mxCell>
        <mxCell id="gwmYk7OU8eAEjdsw6BXz-30" value="Select showtime" style="ellipse;whiteSpace=wrap;html=1;" vertex="1" parent="1">
          <mxGeometry x="1265" y="300" width="120" height="50" as="geometry" />
        </mxCell>
        <mxCell id="gwmYk7OU8eAEjdsw6BXz-34" value="Purchase Tickets" style="ellipse;whiteSpace=wrap;html=1;" vertex="1" parent="1">
          <mxGeometry x="1475" y="300" width="120" height="50" as="geometry" />
        </mxCell>
        <mxCell id="gwmYk7OU8eAEjdsw6BXz-35" value="Cancel Tickets" style="ellipse;whiteSpace=wrap;html=1;" vertex="1" parent="1">
          <mxGeometry x="1040" y="120" width="120" height="50" as="geometry" />
        </mxCell>
        <mxCell id="gwmYk7OU8eAEjdsw6BXz-36" value="" style="endArrow=open;dashed=1;html=1;rounded=0;exitX=0;exitY=0.5;exitDx=0;exitDy=0;entryX=1;entryY=0.5;entryDx=0;entryDy=0;startArrow=none;startFill=0;endFill=0;endSize=10;" edge="1" parent="1" source="gwmYk7OU8eAEjdsw6BXz-30" target="gwmYk7OU8eAEjdsw6BXz-28">
          <mxGeometry width="50" height="50" relative="1" as="geometry">
            <mxPoint x="1390" y="220" as="sourcePoint" />
            <mxPoint x="1200" y="220" as="targetPoint" />
          </mxGeometry>
        </mxCell>
        <mxCell id="gwmYk7OU8eAEjdsw6BXz-37" value="&amp;lt;&amp;lt;extend&amp;gt;&amp;gt;" style="edgeLabel;html=1;align=center;verticalAlign=middle;resizable=0;points=[];" vertex="1" connectable="0" parent="gwmYk7OU8eAEjdsw6BXz-36">
          <mxGeometry x="0.0063" y="-2" relative="1" as="geometry">
            <mxPoint as="offset" />
          </mxGeometry>
        </mxCell>
        <mxCell id="gwmYk7OU8eAEjdsw6BXz-38" value="" style="endArrow=open;dashed=1;html=1;rounded=0;entryX=1;entryY=0.5;entryDx=0;entryDy=0;startArrow=none;startFill=0;endFill=0;endSize=10;" edge="1" parent="1" source="gwmYk7OU8eAEjdsw6BXz-30" target="gwmYk7OU8eAEjdsw6BXz-29">
          <mxGeometry width="50" height="50" relative="1" as="geometry">
            <mxPoint x="500" y="185" as="sourcePoint" />
            <mxPoint x="310" y="185" as="targetPoint" />
          </mxGeometry>
        </mxCell>
        <mxCell id="gwmYk7OU8eAEjdsw6BXz-39" value="&amp;lt;&amp;lt;extend&amp;gt;&amp;gt;" style="edgeLabel;html=1;align=center;verticalAlign=middle;resizable=0;points=[];" vertex="1" connectable="0" parent="gwmYk7OU8eAEjdsw6BXz-38">
          <mxGeometry x="0.0063" y="-2" relative="1" as="geometry">
            <mxPoint as="offset" />
          </mxGeometry>
        </mxCell>
        <mxCell id="gwmYk7OU8eAEjdsw6BXz-40" value="" style="endArrow=open;dashed=1;html=1;rounded=0;exitX=1;exitY=0.5;exitDx=0;exitDy=0;entryX=0;entryY=0.5;entryDx=0;entryDy=0;startArrow=none;startFill=0;endFill=0;endSize=10;" edge="1" parent="1" source="gwmYk7OU8eAEjdsw6BXz-30" target="gwmYk7OU8eAEjdsw6BXz-34">
          <mxGeometry width="50" height="50" relative="1" as="geometry">
            <mxPoint x="1440" y="205" as="sourcePoint" />
            <mxPoint x="1630" y="205" as="targetPoint" />
          </mxGeometry>
        </mxCell>
        <mxCell id="gwmYk7OU8eAEjdsw6BXz-41" value="&amp;lt;&amp;lt;include&amp;gt;&amp;gt;" style="edgeLabel;html=1;align=center;verticalAlign=middle;resizable=0;points=[];" vertex="1" connectable="0" parent="gwmYk7OU8eAEjdsw6BXz-40">
          <mxGeometry x="0.0063" y="-2" relative="1" as="geometry">
            <mxPoint as="offset" />
          </mxGeometry>
        </mxCell>
        <mxCell id="gwmYk7OU8eAEjdsw6BXz-45" value="Pay15% Administration Fee" style="ellipse;whiteSpace=wrap;html=1;" vertex="1" parent="1">
          <mxGeometry x="1260" y="120" width="120" height="50" as="geometry" />
        </mxCell>
        <mxCell id="gwmYk7OU8eAEjdsw6BXz-47" value="Receive 100% Refund" style="ellipse;whiteSpace=wrap;html=1;" vertex="1" parent="1">
          <mxGeometry x="1260" y="220" width="120" height="50" as="geometry" />
        </mxCell>
        <mxCell id="gwmYk7OU8eAEjdsw6BXz-48" value="Receive Credit&lt;div&gt;Refund&lt;/div&gt;" style="ellipse;whiteSpace=wrap;html=1;" vertex="1" parent="1">
          <mxGeometry x="1470" y="120" width="120" height="50" as="geometry" />
        </mxCell>
        <mxCell id="gwmYk7OU8eAEjdsw6BXz-50" value="" style="endArrow=open;dashed=1;html=1;rounded=0;exitX=1;exitY=0.5;exitDx=0;exitDy=0;startArrow=none;startFill=0;endFill=0;endSize=10;entryX=0;entryY=0.5;entryDx=0;entryDy=0;" edge="1" parent="1" source="gwmYk7OU8eAEjdsw6BXz-45" target="gwmYk7OU8eAEjdsw6BXz-48">
          <mxGeometry width="50" height="50" relative="1" as="geometry">
            <mxPoint x="1380" y="244.33" as="sourcePoint" />
            <mxPoint x="1460" y="290" as="targetPoint" />
          </mxGeometry>
        </mxCell>
        <mxCell id="gwmYk7OU8eAEjdsw6BXz-51" value="&amp;lt;&amp;lt;include&amp;gt;&amp;gt;" style="edgeLabel;html=1;align=center;verticalAlign=middle;resizable=0;points=[];" vertex="1" connectable="0" parent="gwmYk7OU8eAEjdsw6BXz-50">
          <mxGeometry x="0.0063" y="-2" relative="1" as="geometry">
            <mxPoint as="offset" />
          </mxGeometry>
        </mxCell>
        <mxCell id="gwmYk7OU8eAEjdsw6BXz-53" value="Manage notifications" style="ellipse;whiteSpace=wrap;html=1;" vertex="1" parent="1">
          <mxGeometry x="1040" y="565" width="120" height="50" as="geometry" />
        </mxCell>
        <mxCell id="gwmYk7OU8eAEjdsw6BXz-54" value="" style="endArrow=open;dashed=1;html=1;rounded=0;exitX=1;exitY=0.5;exitDx=0;exitDy=0;entryX=0;entryY=0.5;entryDx=0;entryDy=0;startArrow=none;startFill=0;endFill=0;endSize=10;" edge="1" parent="1" source="gwmYk7OU8eAEjdsw6BXz-53" target="gwmYk7OU8eAEjdsw6BXz-18">
          <mxGeometry width="50" height="50" relative="1" as="geometry">
            <mxPoint x="1200" y="589.37" as="sourcePoint" />
            <mxPoint x="1300" y="589.37" as="targetPoint" />
          </mxGeometry>
        </mxCell>
        <mxCell id="gwmYk7OU8eAEjdsw6BXz-55" value="&amp;lt;&amp;lt;include&amp;gt;&amp;gt;" style="edgeLabel;html=1;align=center;verticalAlign=middle;resizable=0;points=[];" vertex="1" connectable="0" parent="gwmYk7OU8eAEjdsw6BXz-54">
          <mxGeometry x="0.0063" y="-2" relative="1" as="geometry">
            <mxPoint as="offset" />
          </mxGeometry>
        </mxCell>
        <mxCell id="gwmYk7OU8eAEjdsw6BXz-64" value="" style="endArrow=open;dashed=1;html=1;rounded=0;entryX=1;entryY=0.5;entryDx=0;entryDy=0;startArrow=none;startFill=0;endFill=0;endSize=10;exitX=0;exitY=0.5;exitDx=0;exitDy=0;" edge="1" parent="1" source="gwmYk7OU8eAEjdsw6BXz-45" target="gwmYk7OU8eAEjdsw6BXz-35">
          <mxGeometry width="50" height="50" relative="1" as="geometry">
            <mxPoint x="1275" y="190" as="sourcePoint" />
            <mxPoint x="1155" y="246" as="targetPoint" />
          </mxGeometry>
        </mxCell>
        <mxCell id="gwmYk7OU8eAEjdsw6BXz-65" value="&amp;lt;&amp;lt;extend&amp;gt;&amp;gt;" style="edgeLabel;html=1;align=center;verticalAlign=middle;resizable=0;points=[];" vertex="1" connectable="0" parent="gwmYk7OU8eAEjdsw6BXz-64">
          <mxGeometry x="0.0063" y="-2" relative="1" as="geometry">
            <mxPoint as="offset" />
          </mxGeometry>
        </mxCell>
        <mxCell id="gwmYk7OU8eAEjdsw6BXz-66" value="" style="endArrow=open;dashed=1;html=1;rounded=0;entryX=1;entryY=0.5;entryDx=0;entryDy=0;startArrow=none;startFill=0;endFill=0;endSize=10;exitX=0;exitY=0.5;exitDx=0;exitDy=0;" edge="1" parent="1" source="gwmYk7OU8eAEjdsw6BXz-47" target="gwmYk7OU8eAEjdsw6BXz-35">
          <mxGeometry width="50" height="50" relative="1" as="geometry">
            <mxPoint x="1270" y="255" as="sourcePoint" />
            <mxPoint x="1170" y="255" as="targetPoint" />
          </mxGeometry>
        </mxCell>
        <mxCell id="gwmYk7OU8eAEjdsw6BXz-67" value="&amp;lt;&amp;lt;extend&amp;gt;&amp;gt;" style="edgeLabel;html=1;align=center;verticalAlign=middle;resizable=0;points=[];" vertex="1" connectable="0" parent="gwmYk7OU8eAEjdsw6BXz-66">
          <mxGeometry x="0.0063" y="-2" relative="1" as="geometry">
            <mxPoint as="offset" />
          </mxGeometry>
        </mxCell>
        <mxCell id="gwmYk7OU8eAEjdsw6BXz-68" value="Register Profile Information" style="ellipse;whiteSpace=wrap;html=1;" vertex="1" parent="1">
          <mxGeometry x="1040" y="780" width="120" height="50" as="geometry" />
        </mxCell>
        <mxCell id="gwmYk7OU8eAEjdsw6BXz-69" value="&lt;font style=&quot;font-size: 10px;&quot;&gt;View Early Access movies&lt;/font&gt;" style="ellipse;whiteSpace=wrap;html=1;" vertex="1" parent="1">
          <mxGeometry x="1045" y="480" width="120" height="50" as="geometry" />
        </mxCell>
        <mxCell id="gwmYk7OU8eAEjdsw6BXz-70" value="" style="endArrow=open;dashed=1;html=1;rounded=0;entryX=1;entryY=0.5;entryDx=0;entryDy=0;startArrow=none;startFill=0;endFill=0;endSize=10;exitX=0.5;exitY=1;exitDx=0;exitDy=0;" edge="1" parent="1" source="gwmYk7OU8eAEjdsw6BXz-30" target="gwmYk7OU8eAEjdsw6BXz-69">
          <mxGeometry width="50" height="50" relative="1" as="geometry">
            <mxPoint x="1310" y="400" as="sourcePoint" />
            <mxPoint x="1190" y="456" as="targetPoint" />
          </mxGeometry>
        </mxCell>
        <mxCell id="gwmYk7OU8eAEjdsw6BXz-71" value="&amp;lt;&amp;lt;extend&amp;gt;&amp;gt;" style="edgeLabel;html=1;align=center;verticalAlign=middle;resizable=0;points=[];" vertex="1" connectable="0" parent="gwmYk7OU8eAEjdsw6BXz-70">
          <mxGeometry x="0.0063" y="-2" relative="1" as="geometry">
            <mxPoint as="offset" />
          </mxGeometry>
        </mxCell>
        <mxCell id="gwmYk7OU8eAEjdsw6BXz-72" value="" style="endArrow=none;html=1;rounded=0;exitX=0.5;exitY=1;exitDx=0;exitDy=0;entryX=0.5;entryY=0.5;entryDx=0;entryDy=0;entryPerimeter=0;" edge="1" parent="1" source="gwmYk7OU8eAEjdsw6BXz-34" target="gwmYk7OU8eAEjdsw6BXz-17">
          <mxGeometry width="50" height="50" relative="1" as="geometry">
            <mxPoint x="1440" y="398" as="sourcePoint" />
            <mxPoint x="1580" y="430" as="targetPoint" />
          </mxGeometry>
        </mxCell>
        <mxCell id="gwmYk7OU8eAEjdsw6BXz-73" value="" style="endArrow=none;html=1;rounded=0;exitX=1;exitY=0.5;exitDx=0;exitDy=0;" edge="1" parent="1" source="gwmYk7OU8eAEjdsw6BXz-26">
          <mxGeometry width="50" height="50" relative="1" as="geometry">
            <mxPoint x="1545" y="360" as="sourcePoint" />
            <mxPoint x="1640" y="430" as="targetPoint" />
          </mxGeometry>
        </mxCell>
      </root>
    </mxGraphModel>
  </diagram>
</mxfile>
